<svg width="1100" height="460" viewBox="0 0 1100 460" fill="none" xmlns="http://www.w3.org/2000/svg">
  <defs>
    <linearGradient id="g1" x1="120" y1="70" x2="960" y2="392" gradientUnits="userSpaceOnUse">
      <stop offset="0" stop-color="#0F6D66"/>
      <stop offset="1" stop-color="#B1492F"/>
    </linearGradient>
  </defs>

  <rect x="6" y="6" width="1088" height="448" rx="26" fill="#FFF8ED" stroke="#E1CDB6"/>

  <g opacity="0.17" stroke="#8A765C" stroke-width="1.5">
    <path d="M68 356H1024"/>
    <path d="M68 286H1024"/>
    <path d="M68 216H1024"/>
    <path d="M68 146H1024"/>
    <path d="M180 88V392"/>
    <path d="M366 88V392"/>
    <path d="M552 88V392"/>
    <path d="M738 88V392"/>
    <path d="M924 88V392"/>
  </g>

  <path d="M86 338C212 338 272 216 390 216C508 216 530 342 660 342C790 342 842 154 1014 154" stroke="url(#g1)" stroke-width="14" stroke-linecap="round"/>
  <path d="M86 150C180 150 270 286 382 286C494 286 550 126 670 126C790 126 846 262 1014 262" stroke="url(#g1)" stroke-opacity="0.5" stroke-width="10" stroke-linecap="round"/>

  <g fill="#0F6D66">
    <circle cx="390" cy="216" r="14"/>
    <circle cx="660" cy="342" r="14"/>
    <circle cx="1014" cy="154" r="14"/>
  </g>

  <g fill="#B1492F">
    <circle cx="382" cy="286" r="12"/>
    <circle cx="670" cy="126" r="12"/>
    <circle cx="1014" cy="262" r="12"/>
  </g>

  <text x="86" y="86" fill="#544230" font-size="30" font-family="PingFang SC, Microsoft YaHei, sans-serif">信息流速度</text>
  <text x="408" y="86" fill="#544230" font-size="30" font-family="PingFang SC, Microsoft YaHei, sans-serif">理解深度</text>
  <text x="744" y="86" fill="#544230" font-size="30" font-family="PingFang SC, Microsoft YaHei, sans-serif">应用杠杆</text>
</svg>
